<svg width="0" height="0" class="hidden">
  <symbol xmlns="http://www.w3.org/2000/svg" fill="none" stroke-width="1.5" aria-hidden="true" viewBox="0 0 24 24" id="about">
    <path stroke-linecap="round" stroke-linejoin="round" d="M17.982 18.725A7.488 7.488 0 0012 15.75a7.488 7.488 0 00-5.982 2.975m11.963 0a9 9 0 10-11.963 0m11.963 0A8.966 8.966 0 0112 21a8.966 8.966 0 01-5.982-2.275M15 9.75a3 3 0 11-6 0 3 3 0 016 0z"></path>
  </symbol>
  <symbol xmlns="http://www.w3.org/2000/svg" fill="none" stroke-width="1.5" aria-hidden="true" viewBox="0 0 24 24" id="photos">
    <path
    stroke-linecap="round"
    stroke-linejoin="round"
    d="M6.827 6.175A2.31 2.31 0 015.186 7.23c-.38.054-.757.112-1.134.175C2.999 7.58 2.25 8.507 2.25 9.574V18a2.25 2.25 0 002.25 2.25h15A2.25 2.25 0 0021.75 18V9.574c0-1.067-.75-1.994-1.802-2.169a47.865 47.865 0 00-1.134-.175 2.31 2.31 0 01-1.64-1.055l-.822-1.316a2.192 2.192 0 00-1.736-1.039 48.774 48.774 0 00-5.232 0 2.192 2.192 0 00-1.736 1.039l-.821 1.316z"
  ></path>
  <path
    stroke-linecap="round"
    stroke-linejoin="round"
    d="M16.5 12.75a4.5 4.5 0 11-9 0 4.5 4.5 0 019 0zM18.75 10.5h.008v.008h-.008V10.5z"
  ></path>
  </symbol>
  <symbol xmlns="http://www.w3.org/2000/svg" fill="none" stroke-width="1.5" aria-hidden="true" viewBox="0 0 24 24" id="home">
    <path stroke-linecap="round" stroke-linejoin="round" d="M19.5 12h-15m0 0l6.75 6.75M4.5 12l6.75-6.75"></path>
  </symbol>
  <symbol xmlns="http://www.w3.org/2000/svg" aria-hidden="true" viewBox="0 0 24 24" id="instagram">
    <path d="M7.8,2H16.2C19.4,2 22,4.6 22,7.8V16.2A5.8,5.8 0 0,1 16.2,22H7.8C4.6,22 2,19.4 2,16.2V7.8A5.8,5.8 0 0,1 7.8,2M7.6,4A3.6,3.6 0 0,0 4,7.6V16.4C4,18.39 5.61,20 7.6,20H16.4A3.6,3.6 0 0,0 20,16.4V7.6C20,5.61 18.39,4 16.4,4H7.6M17.25,5.5A1.25,1.25 0 0,1 18.5,6.75A1.25,1.25 0 0,1 17.25,8A1.25,1.25 0 0,1 16,6.75A1.25,1.25 0 0,1 17.25,5.5M12,7A5,5 0 0,1 17,12A5,5 0 0,1 12,17A5,5 0 0,1 7,12A5,5 0 0,1 12,7M12,9A3,3 0 0,0 9,12A3,3 0 0,0 12,15A3,3 0 0,0 15,12A3,3 0 0,0 12,9Z"></path>
  </symbol>
  <symbol xmlns="http://www.w3.org/2000/svg" aria-hidden="true" viewBox="0 0 24 24" id="twitter">
    <path
    d="M22.46,6C21.69,6.35 20.86,6.58 20,6.69C20.88,6.16 21.56,5.32 21.88,4.31C21.05,4.81 20.13,5.16 19.16,5.36C18.37,4.5 17.26,4 16,4C13.65,4 11.73,5.92 11.73,8.29C11.73,8.63 11.77,8.96 11.84,9.27C8.28,9.09 5.11,7.38 3,4.79C2.63,5.42 2.42,6.16 2.42,6.94C2.42,8.43 3.17,9.75 4.33,10.5C3.62,10.5 2.96,10.3 2.38,10C2.38,10 2.38,10 2.38,10.03C2.38,12.11 3.86,13.85 5.82,14.24C5.46,14.34 5.08,14.39 4.69,14.39C4.42,14.39 4.15,14.36 3.89,14.31C4.43,16 6,17.26 7.89,17.29C6.43,18.45 4.58,19.13 2.56,19.13C2.22,19.13 1.88,19.11 1.54,19.07C3.44,20.29 5.7,21 8.12,21C16,21 20.33,14.46 20.33,8.79C20.33,8.6 20.33,8.42 20.32,8.23C21.16,7.63 21.88,6.87 22.46,6Z"
  ></path>
  </symbol>
  <symbol xmlns="http://www.w3.org/2000/svg" aria-hidden="true" viewBox="0 0 24 24" id="youtube">
    <path d="M10,15L15.19,12L10,9V15M21.56,7.17C21.69,7.64 21.78,8.27 21.84,9.07C21.91,9.87 21.94,10.56 21.94,11.16L22,12C22,14.19 21.84,15.8 21.56,16.83C21.31,17.73 20.73,18.31 19.83,18.56C19.36,18.69 18.5,18.78 17.18,18.84C15.88,18.91 14.69,18.94 13.59,18.94L12,19C7.81,19 5.2,18.84 4.17,18.56C3.27,18.31 2.69,17.73 2.44,16.83C2.31,16.36 2.22,15.73 2.16,14.93C2.09,14.13 2.06,13.44 2.06,12.84L2,12C2,9.81 2.16,8.2 2.44,7.17C2.69,6.27 3.27,5.69 4.17,5.44C4.64,5.31 5.5,5.22 6.82,5.16C8.12,5.09 9.31,5.06 10.41,5.06L12,5C16.19,5 18.8,5.16 19.83,5.44C20.73,5.69 21.31,6.27 21.56,7.17Z"></path>
  </symbol>
  <symbol xmlns="http://www.w3.org/2000/svg" fill="none" stroke-width="1.5" stroke="currentColor" aria-hidden="true"  viewBox="0 0 24 24" id="left">
    <path stroke-linecap="round" stroke-linejoin="round"
      d="M18.75 19.5l-7.5-7.5 7.5-7.5m-6 15L5.25 12l7.5-7.5">
    </path>
  </symbol>
  <symbol xmlns="http://www.w3.org/2000/svg" fill="none" stroke-width="1.5" stroke="currentColor" aria-hidden="true" viewBox="0 0 24 24" id="right">
    <path stroke-linecap="round" stroke-linejoin="round"
      d="M11.25 4.5l7.5 7.5-7.5 7.5m-6-15l7.5 7.5-7.5 7.5">
    </path>
  </symbol>
</svg>